<svg xmlns="http://www.w3.org/2000/svg" viewBox="0 0 32 32">
  <rect width="32" height="32" fill="#4A9B8E" rx="6"/>
  <!-- Brain/Head outline -->
  <path d="M16 6c-3 0-5.5 2-6 4.5-1 0-2 1-2 2.5s1 2.5 2 2.5c0 1.5 1 3 2.5 3.5 0 1 1 2 2 2s2-1 2-2c1.5-.5 2.5-2 2.5-3.5 1 0 2-1 2-2.5s-1-2.5-2-2.5c-.5-2.5-3-4.5-6-4.5z" fill="white" opacity="0.9"/>
  <!-- Heart symbol -->
  <path d="M16 24c-1-1-3-2-3-4 0-1 1-2 2-2s2 1 2 2 1 1 2 2 2 1 2 2-2 2-3 4z" fill="#E53E3E" opacity="0.8"/>
  <!-- Neural network dots -->
  <circle cx="10" cy="12" r="1" fill="white" opacity="0.7"/>
  <circle cx="22" cy="12" r="1" fill="white" opacity="0.7"/>
  <circle cx="16" cy="8" r="1" fill="white" opacity="0.7"/>
</svg>
